<svg id="visual" viewBox="0 0 900 75" width="900" height="75" xmlns="http://www.w3.org/2000/svg" xmlns:xlink="http://www.w3.org/1999/xlink" version="1.1"><path d="M0 11L82 7L164 8L245 6L327 10L409 6L491 11L573 9L655 9L736 6L818 8L900 8L900 0L818 0L736 0L655 0L573 0L491 0L409 0L327 0L245 0L164 0L82 0L0 0Z" fill="#7289da"></path><path d="M0 26L82 45L164 21L245 27L327 35L409 33L491 33L573 41L655 36L736 31L818 37L900 37L900 6L818 6L736 4L655 7L573 7L491 9L409 4L327 8L245 4L164 6L82 5L0 9Z" fill="#5873ae"></path><path d="M0 36L82 56L164 42L245 39L327 45L409 49L491 46L573 49L655 58L736 40L818 51L900 54L900 35L818 35L736 29L655 34L573 39L491 31L409 31L327 33L245 25L164 19L82 43L0 24Z" fill="#455c83"></path><path d="M0 61L82 69L164 69L245 67L327 63L409 62L491 71L573 69L655 71L736 69L818 67L900 69L900 52L818 49L736 38L655 56L573 47L491 44L409 47L327 43L245 37L164 40L82 54L0 34Z" fill="#37455a"></path><path d="M0 76L82 76L164 76L245 76L327 76L409 76L491 76L573 76L655 76L736 76L818 76L900 76L900 67L818 65L736 67L655 69L573 67L491 69L409 60L327 61L245 65L164 67L82 67L0 59Z" fill="#2c2f33"></path></svg>